<svg width="104" height="104" viewBox="0 0 104 104" fill="none" xmlns="http://www.w3.org/2000/svg">
<path d="M-0.144043 54.5023L2.04447 54.1869C2.17551 55.2841 2.44416 56.0856 2.84386 56.6046C3.25011 57.117 3.79396 57.3732 4.47541 57.3732C5.20273 57.3732 5.74658 57.1433 6.11352 56.69C6.48045 56.2301 6.66392 55.698 6.66392 55.0804C6.66392 54.6928 6.58529 54.3578 6.43459 54.0818C6.27733 53.8059 6.00868 53.5628 5.62209 53.3592C5.35999 53.2212 4.76372 52.9847 3.82017 52.6365C2.61453 52.1898 1.76926 51.6379 1.28438 50.9941C0.602933 50.0744 0.255655 48.9641 0.255655 47.6436C0.255655 46.8027 0.419465 46.0078 0.740533 45.272C1.0616 44.5362 1.52682 43.9712 2.12965 43.5902C2.73902 43.2026 3.46634 43.0121 4.32471 43.0121C5.72037 43.0121 6.77531 43.4654 7.48297 44.3785C8.19063 45.2983 8.55757 46.5202 8.59688 48.0444L6.34285 48.1889C6.25112 47.3349 6.04144 46.7239 5.72692 46.3494C5.41241 45.9749 4.93408 45.7844 4.30505 45.7844C3.64981 45.7844 3.13872 45.9881 2.76523 46.3888C2.52934 46.645 2.4114 46.9867 2.4114 47.4203C2.4114 47.8144 2.52279 48.1495 2.74557 48.432C3.02733 48.7867 3.71533 49.1546 4.80959 49.5422C5.90384 49.9233 6.71634 50.324 7.24053 50.7379C7.76473 51.1452 8.17098 51.7102 8.47239 52.4263C8.76725 53.1358 8.9114 54.0227 8.9114 55.0738C8.9114 56.0264 8.73448 56.9133 8.38066 57.7477C8.02682 58.5754 7.52884 59.193 6.88015 59.6003C6.23146 60.001 5.41896 60.2047 4.45576 60.2047C3.04698 60.2047 1.96584 59.7185 1.20576 58.7528C0.452227 57.7805 0.000110254 56.3615 -0.144043 54.5023ZM0.596381 61.5777C5.18963 85.5831 26.5046 103.741 52.1115 103.741C77.7184 103.741 99.0268 85.5896 103.627 61.5909V61.5777H87.3832C83.1044 76.8652 68.9316 88.0861 52.1115 88.0861C35.2914 88.0861 21.1251 76.8652 16.8398 61.5777H0.596381ZM52.1115 20.8725C38.6201 20.8725 27.1206 29.2947 22.6911 41.12H33.6992C37.4275 34.8986 44.2748 30.7335 52.1115 30.7335C59.9482 30.7335 66.802 34.8986 70.5303 41.12H81.5384C77.109 29.2947 65.6095 20.8725 52.1115 20.8725ZM81.9185 61.5777C77.8035 73.9614 66.0157 82.9092 52.1115 82.9092C38.2138 82.9092 26.426 73.9614 22.3111 61.5777H33.0898C36.6412 68.3904 43.8292 73.0483 52.1115 73.0483C60.4003 73.0483 67.5818 68.3904 71.1397 61.5777H81.9185ZM52.1115 0.0402832C77.3383 0.0402832 98.3912 17.6534 103.41 41.12H87.0621C82.4295 26.391 68.5319 15.6956 52.1115 15.6956C35.6911 15.6956 21.8 26.391 17.1609 41.12H0.819162C5.83176 17.6534 26.8912 0.0402832 52.1115 0.0402832ZM76.4341 59.9091V46.1063H73.1251V43.2945H81.984V46.1063H78.6816V59.9091H76.4341ZM62.9754 54.5023L65.1639 54.1869C65.295 55.2841 65.5636 56.0856 65.9633 56.6046C66.3696 57.117 66.9134 57.3732 67.5949 57.3732C68.3222 57.3732 68.866 57.1433 69.233 56.69C69.5999 56.2301 69.7834 55.698 69.7834 55.0804C69.7834 54.6928 69.7047 54.3578 69.554 54.0818C69.3968 53.8059 69.1281 53.5628 68.7415 53.3592C68.4794 53.2212 67.8766 52.9847 66.9396 52.6365C65.734 52.1898 64.8887 51.6379 64.4038 50.9941C63.7224 50.0744 63.3751 48.9641 63.3751 47.6436C63.3751 46.8027 63.5389 46.0078 63.86 45.272C64.1811 44.5362 64.6463 43.9712 65.2491 43.5902C65.8585 43.2026 66.5858 43.0121 67.4442 43.0121C68.8398 43.0121 69.8948 43.4654 70.6024 44.3785C71.3101 45.2983 71.677 46.5202 71.7163 48.0444L69.4623 48.1889C69.3706 47.3349 69.1609 46.7239 68.8464 46.3494C68.5319 45.9749 68.0535 45.7844 67.418 45.7844C66.7693 45.7844 66.2582 45.9881 65.8847 46.3888C65.6488 46.645 65.5309 46.9867 65.5309 47.4203C65.5309 47.8144 65.6422 48.1495 65.865 48.432C66.1468 48.7867 66.8348 49.1546 67.929 49.5422C69.0233 49.9233 69.8358 50.324 70.36 50.7379C70.8842 51.1452 71.2904 51.7102 71.5853 52.4263C71.8867 53.1358 72.0309 54.0227 72.0309 55.0738C72.0309 56.0264 71.8539 56.9133 71.5001 57.7477C71.1463 58.5754 70.6483 59.193 69.9996 59.6003C69.3509 60.001 68.5384 60.2047 67.5752 60.2047C66.1664 60.2047 65.0853 59.7185 64.3252 58.7528C63.5717 57.7805 63.1196 56.3615 62.9754 54.5023ZM58.2118 53.3395L56.6785 47.1706L55.1715 53.3395H58.2118ZM62.3529 59.9091H59.9023L58.9326 56.1381H54.4769L53.5596 59.9091H51.1745L55.5122 43.2945H57.8907L62.3529 59.9091ZM42.8595 59.9091V43.4325H45.107V57.1104H50.7027V59.9091H42.8595ZM34.669 46.1063V50.8233H35.9008C36.7854 50.8233 37.3817 50.7313 37.6765 50.5605C37.9779 50.3831 38.2138 50.1138 38.3776 49.7459C38.548 49.3714 38.6332 48.9444 38.6332 48.4517C38.6332 47.8473 38.5152 47.348 38.2793 46.9538C38.0369 46.5596 37.7355 46.3166 37.3751 46.218C37.1065 46.1392 36.5626 46.1063 35.7567 46.1063H34.669ZM32.4215 59.9091V43.2945H36.0319C37.3948 43.2945 38.2859 43.3799 38.7052 43.5442C39.3408 43.7938 39.8781 44.3325 40.304 45.1669C40.7365 46.0078 40.9527 47.0852 40.9527 48.4057C40.9527 49.424 40.8282 50.2846 40.5792 50.981C40.3302 51.6774 40.0157 52.2226 39.6357 52.6168C39.2491 53.011 38.8625 53.2803 38.4694 53.4052C37.9321 53.5628 37.1523 53.6417 36.1367 53.6417H34.669V59.9091H32.4215ZM22.1735 51.5919C22.1735 53.4709 22.4684 54.903 23.0515 55.8688C23.6281 56.8411 24.3686 57.3272 25.2662 57.3272C26.1639 57.3272 26.8978 56.8476 27.4744 55.8819C28.051 54.9162 28.3393 53.4709 28.3393 51.546C28.3393 49.6408 28.0576 48.2217 27.5006 47.2823C26.9371 46.3494 26.1967 45.8764 25.2662 45.8764C24.3423 45.8764 23.5954 46.3494 23.0253 47.302C22.4552 48.248 22.1735 49.6802 22.1735 51.5919ZM19.8539 51.7036C19.8539 50.0152 20.0243 48.5896 20.365 47.44C20.6206 46.5991 20.9679 45.837 21.4069 45.1669C21.8393 44.4902 22.3242 43.9909 22.8418 43.669C23.5364 43.2288 24.3358 43.0121 25.2466 43.0121C26.8847 43.0121 28.2017 43.7676 29.1846 45.2851C30.1674 46.8093 30.6654 48.9181 30.6654 51.6248C30.6654 54.3118 30.174 56.4075 29.1977 57.925C28.2214 59.4361 26.9109 60.1981 25.2728 60.1981C23.6216 60.1981 22.3045 59.4426 21.3217 57.9316C20.3454 56.4272 19.8539 54.3512 19.8539 51.7036ZM10.864 59.9091V43.4325H13.1181V57.1104H18.7073V59.9091H10.864Z" fill="#273752"/>
</svg>
